<svg xmlns="http://www.w3.org/2000/svg" width="123.113" height="101.271" viewBox="0 0 123.113 101.271">
  <path id="coil" d="M124.113,13.943h-7.943V11.957a1.985,1.985,0,0,0-1.986-1.986h-3.971V6h-3.971V9.971h-3.971a1.985,1.985,0,0,0-1.986,1.986v1.986H98.3V9.971H94.328v3.975l-8.108,0L41.469,17.68a5.155,5.155,0,0,0,.214,10.288l42.635,1.946L40.629,31.733a4.056,4.056,0,0,0,0,8.106l43.689,1.99L40.631,43.647a4.056,4.056,0,0,0,0,8.106l43.689,1.99L40.631,55.561a4.056,4.056,0,0,0,0,8.106l43.689,1.99L40.631,67.475a4.056,4.056,0,0,0,0,8.106l43.689,1.99L40.631,79.39a4.056,4.056,0,0,0,0,8.106l42.637,1.777a1.184,1.184,0,0,1,.046,2.363L38.728,95.357H30.786V91.385H26.814v3.971H24.828V93.371a1.985,1.985,0,0,0-1.986-1.986H10.929a1.985,1.985,0,0,0-1.986,1.986v1.986H1v3.971H8.943v1.986a1.985,1.985,0,0,0,1.986,1.986H14.9v3.971h3.971V103.3h3.971a1.985,1.985,0,0,0,1.986-1.986V99.328h1.986V103.3h3.971V99.324l8.108,0,44.752-3.729A5.155,5.155,0,0,0,83.43,85.3L40.8,83.357l43.689-1.819a4.056,4.056,0,0,0,0-8.106l-43.689-1.99,43.689-1.819a4.056,4.056,0,0,0,0-8.106l-43.689-1.99L84.483,57.71a4.056,4.056,0,0,0,0-8.106l-43.689-1.99L84.483,45.8a4.056,4.056,0,0,0,0-8.106L40.793,35.7l43.689-1.819a4.056,4.056,0,0,0,0-8.106L41.846,24a1.184,1.184,0,0,1-.046-2.363l44.585-3.721h7.943v3.971H98.3V17.914h1.986V19.9a1.985,1.985,0,0,0,1.986,1.986h11.914a1.985,1.985,0,0,0,1.986-1.986V17.914h7.943ZM20.857,99.328H12.914V95.357h7.943ZM112.2,17.914h-7.943V13.943H112.2Z" transform="translate(-1 -6)" fill="#103b57"/>
</svg>
