<svg xmlns="http://www.w3.org/2000/svg" width="108.91" height="108.91" viewBox="0 0 108.91 108.91">
  <g id="colchon" transform="translate(108.91 108.91) rotate(180)">
    <g id="Grupo_990" data-name="Grupo 990" transform="translate(0 0)">
      <g id="Grupo_989" data-name="Grupo 989">
        <path id="Trazado_6811" data-name="Trazado 6811" d="M93.655,344.287a1.6,1.6,0,0,0,2.256,0l1.074-1.074,1.074,1.074a1.6,1.6,0,0,0,2.256-2.256l-1.074-1.074,1.074-1.074a1.6,1.6,0,0,0-2.256-2.256L96.986,338.7l-1.074-1.074a1.6,1.6,0,0,0-2.256,2.256l1.074,1.074-1.074,1.074A1.6,1.6,0,0,0,93.655,344.287Z" transform="translate(-73.365 -265.44)" fill="#103b57"/>
        <path id="Trazado_6812" data-name="Trazado 6812" d="M238.613,219.863a1.6,1.6,0,0,0,2.256,0l1.074-1.074,1.074,1.074a1.6,1.6,0,1,0,2.256-2.256l-1.074-1.074,1.074-1.074a1.6,1.6,0,0,0-2.256-2.256l-1.075,1.074-1.074-1.074a1.6,1.6,0,1,0-2.256,2.256l1.074,1.074-1.074,1.074A1.6,1.6,0,0,0,238.613,219.863Z" transform="translate(-187.488 -167.483)" fill="#103b57"/>
        <path id="Trazado_6813" data-name="Trazado 6813" d="M103.185,0H75.929A5.731,5.731,0,0,0,72.3,1.3a.455.455,0,0,1-.6,0A5.732,5.732,0,0,0,68.083,0H40.827A5.731,5.731,0,0,0,37.2,1.3a.455.455,0,0,1-.6,0A5.732,5.732,0,0,0,32.981,0H5.725A5.731,5.731,0,0,0,0,5.725v12.6a1.6,1.6,0,1,0,3.191,0V5.725A2.537,2.537,0,0,1,5.725,3.191H32.981a2.5,2.5,0,0,1,1.6.572,3.625,3.625,0,0,0,4.643,0,2.5,2.5,0,0,1,1.6-.572H68.083a2.5,2.5,0,0,1,1.6.572,3.625,3.625,0,0,0,4.643,0,2.5,2.5,0,0,1,1.6-.572h27.256a2.537,2.537,0,0,1,2.534,2.534V93.992a5.689,5.689,0,0,0-2.534-.593H88.421a1.6,1.6,0,0,0,0,3.191h14.763a2.537,2.537,0,0,1,2.534,2.534v4.061a2.537,2.537,0,0,1-2.534,2.534H75.929a2.5,2.5,0,0,1-1.6-.572,3.625,3.625,0,0,0-4.643,0,2.5,2.5,0,0,1-1.6.572H40.827a2.5,2.5,0,0,1-1.6-.572,3.625,3.625,0,0,0-4.643,0,2.5,2.5,0,0,1-1.6.572H5.725a2.537,2.537,0,0,1-2.534-2.534V99.124A2.537,2.537,0,0,1,5.725,96.59H32.981a2.5,2.5,0,0,1,1.6.572,3.625,3.625,0,0,0,4.643,0,2.5,2.5,0,0,1,1.6-.572H68.083a2.5,2.5,0,0,1,1.6.572,3.625,3.625,0,0,0,4.643,0,2.5,2.5,0,0,1,1.6-.572h6.194a1.6,1.6,0,0,0,0-3.191H75.929a5.732,5.732,0,0,0-3.625,1.3.455.455,0,0,1-.6,0,5.732,5.732,0,0,0-3.625-1.3H40.827a5.732,5.732,0,0,0-3.625,1.3.455.455,0,0,1-.6,0,5.732,5.732,0,0,0-3.625-1.3H5.725a5.689,5.689,0,0,0-2.534.593V24.412a1.6,1.6,0,1,0-3.191,0v78.773a5.731,5.731,0,0,0,5.725,5.725H32.981a5.732,5.732,0,0,0,3.625-1.3.455.455,0,0,1,.6,0,5.732,5.732,0,0,0,3.625,1.3H68.083a5.732,5.732,0,0,0,3.625-1.3.455.455,0,0,1,.6,0,5.732,5.732,0,0,0,3.625,1.3h27.256a5.731,5.731,0,0,0,5.725-5.725V5.725A5.731,5.731,0,0,0,103.185,0Z" transform="translate(0 0)" fill="#103b57"/>
        <path id="Trazado_6814" data-name="Trazado 6814" d="M93.655,95.786a1.6,1.6,0,0,0,2.256,0l1.074-1.074,1.074,1.074a1.6,1.6,0,0,0,2.256-2.256l-1.074-1.074,1.074-1.074a1.6,1.6,0,0,0-2.256-2.256L96.986,90.2l-1.074-1.074a1.6,1.6,0,0,0-2.256,2.256l1.074,1.074L93.655,93.53A1.6,1.6,0,0,0,93.655,95.786Z" transform="translate(-73.365 -69.799)" fill="#103b57"/>
        <path id="Trazado_6815" data-name="Trazado 6815" d="M93.655,219.864a1.6,1.6,0,0,0,2.256,0l1.074-1.074,1.074,1.074a1.6,1.6,0,0,0,2.256-2.256l-1.074-1.074,1.074-1.074A1.6,1.6,0,0,0,98.06,213.2l-1.074,1.074L95.911,213.2a1.6,1.6,0,1,0-2.256,2.256l1.074,1.074-1.074,1.074A1.6,1.6,0,0,0,93.655,219.864Z" transform="translate(-73.365 -167.484)" fill="#103b57"/>
        <path id="Trazado_6816" data-name="Trazado 6816" d="M238.613,95.785a1.6,1.6,0,0,0,2.256,0l1.075-1.075,1.075,1.075a1.6,1.6,0,1,0,2.256-2.256L244.2,92.455l1.074-1.074a1.6,1.6,0,1,0-2.256-2.256L241.943,90.2l-1.075-1.075a1.6,1.6,0,1,0-2.256,2.256l1.074,1.074-1.074,1.074A1.6,1.6,0,0,0,238.613,95.785Z" transform="translate(-187.488 -69.798)" fill="#103b57"/>
        <path id="Trazado_6817" data-name="Trazado 6817" d="M383.572,219.864a1.6,1.6,0,0,0,2.257,0l1.074-1.074,1.074,1.074a1.6,1.6,0,0,0,2.256-2.256l-1.074-1.074,1.074-1.074a1.6,1.6,0,0,0-2.256-2.256l-1.074,1.074-1.074-1.074a1.6,1.6,0,0,0-2.256,2.256l1.074,1.074-1.074,1.074A1.6,1.6,0,0,0,383.572,219.864Z" transform="translate(-301.613 -167.484)" fill="#103b57"/>
        <path id="Trazado_6818" data-name="Trazado 6818" d="M383.572,344.287a1.6,1.6,0,0,0,2.257,0l1.074-1.074,1.074,1.074a1.6,1.6,0,0,0,2.256-2.256l-1.074-1.074,1.074-1.074a1.6,1.6,0,0,0-2.256-2.256L386.9,338.7l-1.074-1.074a1.6,1.6,0,0,0-2.256,2.256l1.074,1.074-1.074,1.074A1.6,1.6,0,0,0,383.572,344.287Z" transform="translate(-301.613 -265.44)" fill="#103b57"/>
        <path id="Trazado_6819" data-name="Trazado 6819" d="M238.613,344.285a1.6,1.6,0,0,0,2.256,0l1.075-1.075,1.075,1.075a1.6,1.6,0,1,0,2.256-2.256l-1.074-1.074,1.074-1.074a1.6,1.6,0,0,0-2.256-2.256l-1.075,1.075-1.075-1.075a1.6,1.6,0,1,0-2.256,2.256l1.074,1.074-1.074,1.074A1.6,1.6,0,0,0,238.613,344.285Z" transform="translate(-187.488 -265.439)" fill="#103b57"/>
        <path id="Trazado_6820" data-name="Trazado 6820" d="M383.572,95.786a1.6,1.6,0,0,0,2.257,0l1.074-1.074,1.074,1.074a1.6,1.6,0,0,0,2.256-2.256l-1.074-1.074,1.074-1.074a1.6,1.6,0,0,0-2.256-2.256L386.9,90.2l-1.074-1.074a1.6,1.6,0,0,0-2.256,2.256l1.074,1.074-1.074,1.074A1.6,1.6,0,0,0,383.572,95.786Z" transform="translate(-301.613 -69.799)" fill="#103b57"/>
      </g>
    </g>
  </g>
</svg>
