<svg xmlns="http://www.w3.org/2000/svg" width="109" height="109.823" viewBox="0 0 109 109.823">
  <g id="food-irradiation" transform="translate(-1.919)">
    <path id="Trazado_6821" data-name="Trazado 6821" d="M10.828,109.823H102.01a8.919,8.919,0,0,0,8.909-8.909,22.186,22.186,0,0,0-2.323-9.857l-.126-.252V78.5a4.955,4.955,0,0,0-.518-2.2L105.2,70.786V18.171a1.917,1.917,0,0,0-1.915-1.915H45.94V2.565A2.568,2.568,0,0,0,43.375,0H33.362a1.609,1.609,0,0,0,0,3.217h9.361V16.256h-27.3V11.219c2.187-2.165,5.482-5.49,7.963-8h2.47a1.609,1.609,0,0,0,0-3.217H23.112a2.544,2.544,0,0,0-1.824.761c-3.683,3.729-6.561,6.62-8.323,8.362a2.546,2.546,0,0,0-.761,1.824v5.309H9.553a1.917,1.917,0,0,0-1.915,1.915V52.565a1.609,1.609,0,0,0,3.217,0V19.474h91.128V64.339L91.872,44.081V33.838A2.038,2.038,0,0,0,89.837,31.8H86.058a1.609,1.609,0,0,0,0,3.217h2.6a3.243,3.243,0,0,1-3.239,3.245H27.422a3.243,3.243,0,0,1-3.239-3.245H78.55a1.609,1.609,0,0,0,0-3.217H23a2.038,2.038,0,0,0-2.036,2.035V44.081L10.855,64.34V60.072a1.609,1.609,0,0,0-3.217,0V70.787L4.886,76.3a4.956,4.956,0,0,0-.518,2.2V90.806l-.125.252a22.186,22.186,0,0,0-2.323,9.857,8.919,8.919,0,0,0,8.909,8.909Zm91.182-3.217H10.828a5.7,5.7,0,0,1-5.692-5.692,18.952,18.952,0,0,1,1.984-8.42L23.57,59.536h4.177l-1.8,4.644a4.434,4.434,0,0,0,4.132,6.037h2.432a4.446,4.446,0,0,0,4.272-3.249l1.395-5.033a4.411,4.411,0,0,0-.005-2.4h5.1a4.482,4.482,0,0,0-.109.488l-.837,5.033a4.433,4.433,0,0,0,4.373,5.161h2.7A4.434,4.434,0,0,0,53.82,66.03L54.1,61h0a4.427,4.427,0,0,0-.165-1.461H58.9A4.427,4.427,0,0,0,58.739,61l.279,5.033a4.435,4.435,0,0,0,4.426,4.187h2.7a4.433,4.433,0,0,0,4.373-5.161l-.838-5.033a4.53,4.53,0,0,0-.109-.488h5.1a4.412,4.412,0,0,0-.005,2.4l1.4,5.033a4.445,4.445,0,0,0,4.272,3.249h2.432a4.435,4.435,0,0,0,4.133-6.037l-1.8-4.644h4.177l16.449,32.958a18.948,18.948,0,0,1,1.985,8.42,5.7,5.7,0,0,1-5.692,5.691ZM35.074,61.076l-1.395,5.033A1.219,1.219,0,0,1,32.508,67H30.076a1.215,1.215,0,0,1-1.133-1.655L30.9,60.312a1.223,1.223,0,0,1,1.133-.776H33.9a1.215,1.215,0,0,1,1.171,1.54Zm15.812-.257-.279,5.033A1.216,1.216,0,0,1,49.394,67h-2.7a1.214,1.214,0,0,1-1.2-1.415l.838-5.033a1.212,1.212,0,0,1,1.2-1.016h2.142a1.215,1.215,0,0,1,1.213,1.282ZM66.144,67h-2.7a1.216,1.216,0,0,1-1.213-1.148l-.279-5.033a1.214,1.214,0,0,1,1.213-1.283h2.142a1.211,1.211,0,0,1,1.2,1.016l.838,5.033A1.214,1.214,0,0,1,66.144,67Zm16.617,0H80.33a1.219,1.219,0,0,1-1.171-.891l-1.4-5.033a1.215,1.215,0,0,1,1.171-1.54h1.873a1.223,1.223,0,0,1,1.133.776l1.953,5.033A1.215,1.215,0,0,1,82.762,67Zm22.491,17.359L91.872,57.548V51.286l13.2,26.45a1.717,1.717,0,0,1,.18.764ZM27.422,41.482H85.416a6.418,6.418,0,0,0,3.239-.873V56.319H24.183V40.609a6.418,6.418,0,0,0,3.239.873ZM7.585,78.5a1.723,1.723,0,0,1,.18-.764l13.2-26.45v6.262L7.585,84.359Z" fill="#103b57"/>
    <path id="Trazado_6822" data-name="Trazado 6822" d="M136.224,440.48H50.662a1.609,1.609,0,1,0,0,3.217h85.562a1.609,1.609,0,1,0,0-3.217Z" transform="translate(-37.024 -345.998)" fill="#103b57"/>
    <path id="Trazado_6823" data-name="Trazado 6823" d="M78.282,363.831h4.8a4.446,4.446,0,0,0,4.272-3.248l2.32-8.368A4.431,4.431,0,0,0,85.4,346.6H81.53a4.4,4.4,0,0,0-4.132,2.829l-3.248,8.368A4.435,4.435,0,0,0,78.282,363.831Zm-1.133-4.872,3.248-8.368a1.223,1.223,0,0,1,1.133-.775H85.4a1.215,1.215,0,0,1,1.171,1.54l-2.32,8.368a1.219,1.219,0,0,1-1.171.89h-4.8a1.215,1.215,0,0,1-1.133-1.655Z" transform="translate(-56.498 -272.253)" fill="#103b57"/>
    <path id="Trazado_6824" data-name="Trazado 6824" d="M177.857,363.832h5.071a4.434,4.434,0,0,0,4.426-4.187l.464-8.368a4.437,4.437,0,0,0-4.426-4.678h-4.142a4.419,4.419,0,0,0-4.373,3.705l-1.392,8.368A4.433,4.433,0,0,0,177.857,363.832Zm-1.2-4.632,1.392-8.368a1.212,1.212,0,0,1,1.2-1.016h4.142A1.214,1.214,0,0,1,184.6,351.1l-.464,8.368a1.216,1.216,0,0,1-1.213,1.148h-5.071A1.215,1.215,0,0,1,176.658,359.2Z" transform="translate(-134.716 -272.254)" fill="#103b57"/>
    <path id="Trazado_6825" data-name="Trazado 6825" d="M271.911,359.645a4.434,4.434,0,0,0,4.426,4.187h5.071a4.434,4.434,0,0,0,4.373-5.16l-1.392-8.368a4.419,4.419,0,0,0-4.373-3.705h-4.142a4.437,4.437,0,0,0-4.426,4.678Zm3.962-9.828h4.142a1.212,1.212,0,0,1,1.2,1.016l1.392,8.368a1.215,1.215,0,0,1-1.2,1.415h-5.071a1.216,1.216,0,0,1-1.213-1.148l-.463-8.368A1.214,1.214,0,0,1,275.873,349.817Z" transform="translate(-211.71 -272.254)" fill="#103b57"/>
    <path id="Trazado_6826" data-name="Trazado 6826" d="M366.075,360.584a4.445,4.445,0,0,0,4.271,3.249h4.8a4.435,4.435,0,0,0,4.132-6.037l-3.248-8.368A4.405,4.405,0,0,0,371.9,346.6h-3.874a4.431,4.431,0,0,0-4.272,5.617Zm1.952-10.767H371.9a1.224,1.224,0,0,1,1.133.775l3.248,8.368a1.215,1.215,0,0,1-1.133,1.655h-4.8a1.219,1.219,0,0,1-1.171-.89l-2.32-8.368A1.215,1.215,0,0,1,368.027,349.817Z" transform="translate(-284.094 -272.254)" fill="#103b57"/>
    <path id="Trazado_6827" data-name="Trazado 6827" d="M182.556,213.677a1.609,1.609,0,0,0,2.2-.589l2.823-4.89a1.609,1.609,0,0,0-2.786-1.609l-2.823,4.89A1.609,1.609,0,0,0,182.556,213.677Z" transform="translate(-141.258 -161.645)" fill="#103b57"/>
    <path id="Trazado_6828" data-name="Trazado 6828" d="M305.124,213.089a1.609,1.609,0,1,0,2.786-1.609l-2.823-4.89A1.609,1.609,0,1,0,302.3,208.2Z" transform="translate(-235.781 -161.645)" fill="#103b57"/>
    <path id="Trazado_6829" data-name="Trazado 6829" d="M250.109,213.893a1.609,1.609,0,0,0,1.609-1.609v-4.89a1.609,1.609,0,0,0-3.217,0v4.89A1.609,1.609,0,0,0,250.109,213.893Z" transform="translate(-193.69 -161.645)" fill="#103b57"/>
    <circle id="Elipse_42" data-name="Elipse 42" cx="1.609" cy="1.609" r="1.609" transform="translate(37.053 10.587)" fill="#103b57"/>
    <circle id="Elipse_43" data-name="Elipse 43" cx="1.609" cy="1.609" r="1.609" transform="translate(31.599 10.587)" fill="#103b57"/>
    <circle id="Elipse_44" data-name="Elipse 44" cx="1.609" cy="1.609" r="1.609" transform="translate(26.144 10.587)" fill="#103b57"/>
    <path id="Trazado_6830" data-name="Trazado 6830" d="M214.481,117.234a1.609,1.609,0,1,0,0-3.217H188.775a1.609,1.609,0,0,0,0,3.217Z" transform="translate(-145.512 -89.561)" fill="#103b57"/>
  </g>
</svg>
