<svg id="leather" xmlns="http://www.w3.org/2000/svg" width="115.62" height="111.106" viewBox="0 0 115.62 111.106">
  <g id="Grupo_953" data-name="Grupo 953">
    <path id="Trazado_6779" data-name="Trazado 6779" fill="none" stroke="#000" stroke-linecap="round" stroke-linejoin="round" stroke-width="2"/>
  </g>
  <g id="Grupo_967" data-name="Grupo 967" transform="translate(0.005 4.518)">
    <g id="Grupo_959" data-name="Grupo 959" transform="translate(41.552 0)">
      <g id="Grupo_954" data-name="Grupo 954" transform="translate(12.64)">
        <path id="Trazado_6780" data-name="Trazado 6780" d="M44.452,18.761A14.47,14.47,0,0,1,30,4.308a1.807,1.807,0,1,1,3.613,0,10.851,10.851,0,0,0,10.84,10.84A10.767,10.767,0,0,0,52.2,11.892a1.806,1.806,0,1,1,2.58,2.527,14.352,14.352,0,0,1-10.327,4.341Z" transform="translate(-29.999 -2.501)" fill="#103b57"/>
      </g>
      <g id="Grupo_955" data-name="Grupo 955" transform="translate(25.286 22.773)">
        <path id="Trazado_6781" data-name="Trazado 6781" d="M55.071,70.721a1.8,1.8,0,0,1-.789-.182,30.721,30.721,0,0,1-.007-55.248,1.807,1.807,0,0,1,1.584,3.248,27.107,27.107,0,0,0,.005,48.75,1.807,1.807,0,0,1-.793,3.433Z" transform="translate(-36.999 -15.106)" fill="#103b57"/>
      </g>
      <g id="Grupo_956" data-name="Grupo 956" transform="translate(0 84.904)">
        <path id="Trazado_6782" data-name="Trazado 6782" d="M24.808,67.563A1.806,1.806,0,0,1,23.276,64.8C29.339,55.076,39.117,49.5,50.1,49.5A30.57,30.57,0,0,1,61.62,51.732a1.807,1.807,0,0,1-1.355,3.349A26.979,26.979,0,0,0,50.1,53.11c-9.85,0-18.287,4.831-23.754,13.6A1.807,1.807,0,0,1,24.808,67.563Z" transform="translate(-23.003 -49.497)" fill="#103b57"/>
      </g>
      <g id="Grupo_957" data-name="Grupo 957" transform="translate(34.319 8.845)">
        <path id="Trazado_6783" data-name="Trazado 6783" d="M51.034,24.943a1.806,1.806,0,0,1-1.606-.976L42.2,10.035A1.807,1.807,0,0,1,45.41,8.371L52.637,22.3a1.806,1.806,0,0,1-.773,2.435A1.775,1.775,0,0,1,51.034,24.943Z" transform="translate(-41.999 -7.397)" fill="#103b57"/>
      </g>
      <g id="Grupo_958" data-name="Grupo 958" transform="translate(36.127 74.774)">
        <path id="Trazado_6784" data-name="Trazado 6784" d="M44.8,59.74a1.781,1.781,0,0,1-.73-.155,1.807,1.807,0,0,1-.92-2.383l5.42-12.236a1.806,1.806,0,1,1,3.3,1.463l-5.42,12.236A1.806,1.806,0,0,1,44.8,59.74Z" transform="translate(-42.999 -43.89)" fill="#103b57"/>
      </g>
    </g>
    <g id="Grupo_965" data-name="Grupo 965" transform="translate(0 0)">
      <g id="Grupo_960" data-name="Grupo 960" transform="translate(7.232)">
        <path id="Trazado_6785" data-name="Trazado 6785" d="M14.848,18.761A14.352,14.352,0,0,1,4.521,14.419,1.806,1.806,0,1,1,7.1,11.892a10.764,10.764,0,0,0,7.747,3.256,10.851,10.851,0,0,0,10.84-10.84,1.807,1.807,0,0,1,3.613,0A14.473,14.473,0,0,1,14.848,18.761Z" transform="translate(-4.006 -2.501)" fill="#103b57"/>
      </g>
      <g id="Grupo_961" data-name="Grupo 961" transform="translate(0 22.774)">
        <path id="Trazado_6786" data-name="Trazado 6786" d="M1.81,70.721a1.808,1.808,0,0,1-.791-3.433A26.924,26.924,0,0,0,16.27,42.917,26.941,26.941,0,0,0,1.026,18.538,1.807,1.807,0,0,1,2.608,15.29,30.526,30.526,0,0,1,19.883,42.917,30.515,30.515,0,0,1,2.6,70.538a1.822,1.822,0,0,1-.791.182Z" transform="translate(-0.003 -15.107)" fill="#103b57"/>
      </g>
      <g id="Grupo_962" data-name="Grupo 962" transform="translate(5.419 84.904)">
        <path id="Trazado_6787" data-name="Trazado 6787" d="M40.944,67.563a1.807,1.807,0,0,1-1.536-.851c-5.469-8.771-13.9-13.6-23.754-13.6A26.979,26.979,0,0,0,5.488,55.081a1.807,1.807,0,0,1-1.355-3.349A30.563,30.563,0,0,1,15.655,49.5c10.982,0,20.758,5.579,26.821,15.3a1.806,1.806,0,0,1-1.532,2.762Z" transform="translate(-3.002 -49.497)" fill="#103b57"/>
      </g>
      <g id="Grupo_963" data-name="Grupo 963" transform="translate(0.008 8.846)">
        <path id="Trazado_6788" data-name="Trazado 6788" d="M1.812,24.943a1.805,1.805,0,0,1-1.6-2.638L7.438,8.372a1.806,1.806,0,1,1,3.207,1.664L3.418,23.969A1.806,1.806,0,0,1,1.812,24.943Z" transform="translate(-0.007 -7.397)" fill="#103b57"/>
      </g>
      <g id="Grupo_964" data-name="Grupo 964" transform="translate(0.006 74.773)">
        <path id="Trazado_6789" data-name="Trazado 6789" d="M7.234,59.74a1.806,1.806,0,0,1-1.653-1.075L.161,46.429a1.807,1.807,0,0,1,3.3-1.463L8.886,57.2a1.8,1.8,0,0,1-.921,2.383,1.768,1.768,0,0,1-.73.155Z" transform="translate(-0.006 -43.889)" fill="#103b57"/>
      </g>
    </g>
    <g id="Grupo_966" data-name="Grupo 966" transform="translate(28.906)">
      <path id="Trazado_6790" data-name="Trazado 6790" d="M43.1,6.114H17.81a1.807,1.807,0,1,1,0-3.613H43.1a1.807,1.807,0,0,1,0,3.613Z" transform="translate(-16.003 -2.501)" fill="#103b57"/>
    </g>
  </g>
  <g id="Grupo_978" data-name="Grupo 978" transform="translate(51.54 8.132)">
    <g id="Grupo_973" data-name="Grupo 973" transform="translate(18.914 0.002)">
      <g id="Grupo_968" data-name="Grupo 968" transform="translate(12.639)">
        <path id="Trazado_6791" data-name="Trazado 6791" d="M60.446,20.762A14.47,14.47,0,0,1,45.993,6.309a1.807,1.807,0,0,1,3.613,0,10.851,10.851,0,0,0,10.84,10.84,10.767,10.767,0,0,0,7.747-3.256,1.806,1.806,0,1,1,2.58,2.527,14.352,14.352,0,0,1-10.327,4.341Z" transform="translate(-45.993 -4.502)" fill="#103b57"/>
      </g>
      <g id="Grupo_969" data-name="Grupo 969" transform="translate(25.285 22.773)">
        <path id="Trazado_6792" data-name="Trazado 6792" d="M71.065,72.724a1.8,1.8,0,0,1-.789-.182,30.723,30.723,0,0,1-.007-55.25,1.807,1.807,0,0,1,1.584,3.248,27.109,27.109,0,0,0,.005,48.752,1.807,1.807,0,0,1-.793,3.433Z" transform="translate(-52.993 -17.107)" fill="#103b57"/>
      </g>
      <g id="Grupo_970" data-name="Grupo 970" transform="translate(0 84.906)">
        <path id="Trazado_6793" data-name="Trazado 6793" d="M40.8,69.565a1.805,1.805,0,0,1-1.53-2.762c6.063-9.725,15.841-15.3,26.821-15.3a30.57,30.57,0,0,1,11.523,2.235,1.807,1.807,0,0,1-1.355,3.349,26.979,26.979,0,0,0-10.168-1.971c-9.85,0-18.287,4.831-23.754,13.6a1.813,1.813,0,0,1-1.537.851Z" transform="translate(-38.997 -51.499)" fill="#103b57"/>
      </g>
      <g id="Grupo_971" data-name="Grupo 971" transform="translate(34.317 8.845)">
        <path id="Trazado_6794" data-name="Trazado 6794" d="M67.028,26.944a1.806,1.806,0,0,1-1.606-.976L58.2,12.036A1.807,1.807,0,0,1,61.4,10.372L68.631,24.3a1.806,1.806,0,0,1-.773,2.435A1.775,1.775,0,0,1,67.028,26.944Z" transform="translate(-57.993 -9.398)" fill="#103b57"/>
      </g>
      <g id="Grupo_972" data-name="Grupo 972" transform="translate(36.125 74.777)">
        <path id="Trazado_6795" data-name="Trazado 6795" d="M60.8,61.741a1.781,1.781,0,0,1-.73-.155,1.807,1.807,0,0,1-.92-2.383l5.42-12.236a1.806,1.806,0,0,1,3.3,1.463l-5.42,12.236A1.806,1.806,0,0,1,60.8,61.741Z" transform="translate(-58.993 -45.892)" fill="#103b57"/>
      </g>
    </g>
    <g id="Grupo_976" data-name="Grupo 976">
      <g id="Grupo_974" data-name="Grupo 974" transform="translate(5.498)">
        <path id="Trazado_6796" data-name="Trazado 6796" d="M33.379,12.483a1.809,1.809,0,0,1-1.7-2.432,10.787,10.787,0,0,0,.663-3.743,1.807,1.807,0,0,1,3.613,0,14.405,14.405,0,0,1-.885,4.99A1.8,1.8,0,0,1,33.379,12.483Z" transform="translate(-31.572 -4.501)" fill="#103b57"/>
      </g>
      <g id="Grupo_975" data-name="Grupo 975" transform="translate(0 85.593)">
        <path id="Trazado_6797" data-name="Trazado 6797" d="M49.25,69.26a1.807,1.807,0,0,1-1.536-.851A27.77,27.77,0,0,0,29.948,55.448a1.806,1.806,0,0,1,.775-3.528A31.3,31.3,0,0,1,50.782,66.5,1.808,1.808,0,0,1,49.25,69.26Z" transform="translate(-28.528 -51.878)" fill="#103b57"/>
      </g>
    </g>
    <g id="Grupo_977" data-name="Grupo 977" transform="translate(6.267 0.002)">
      <path id="Trazado_6798" data-name="Trazado 6798" d="M59.089,8.115H33.8a1.807,1.807,0,0,1,0-3.613H59.089a1.807,1.807,0,1,1,0,3.613Z" transform="translate(-31.997 -4.502)" fill="#103b57"/>
    </g>
  </g>
  <g id="Grupo_979" data-name="Grupo 979" transform="translate(41.549 13.552)">
    <path id="Trazado_6799" data-name="Trazado 6799" d="M24.8,14.728A1.807,1.807,0,0,1,23,12.921V9.308a1.807,1.807,0,1,1,3.613,0v3.613A1.807,1.807,0,0,1,24.8,14.728Z" transform="translate(-22.998 -7.501)" fill="#103b57"/>
  </g>
  <g id="Grupo_980" data-name="Grupo 980" transform="translate(41.549 22.585)">
    <path id="Trazado_6800" data-name="Trazado 6800" d="M24.8,19.726A1.807,1.807,0,0,1,23,17.919V14.308a1.807,1.807,0,1,1,3.613,0v3.611A1.807,1.807,0,0,1,24.8,19.726Z" transform="translate(-22.998 -12.501)" fill="#103b57"/>
  </g>
  <g id="Grupo_981" data-name="Grupo 981" transform="translate(41.549 31.616)">
    <path id="Trazado_6801" data-name="Trazado 6801" d="M24.8,24.727A1.807,1.807,0,0,1,23,22.92V19.307a1.807,1.807,0,1,1,3.613,0V22.92A1.807,1.807,0,0,1,24.8,24.727Z" transform="translate(-22.998 -17.5)" fill="#103b57"/>
  </g>
  <g id="Grupo_982" data-name="Grupo 982" transform="translate(41.549 40.649)">
    <path id="Trazado_6802" data-name="Trazado 6802" d="M24.8,29.727A1.806,1.806,0,0,1,23,27.92V24.307a1.807,1.807,0,1,1,3.613,0V27.92A1.806,1.806,0,0,1,24.8,29.727Z" transform="translate(-22.998 -22.5)" fill="#103b57"/>
  </g>
  <g id="Grupo_983" data-name="Grupo 983" transform="translate(41.549 49.682)">
    <path id="Trazado_6803" data-name="Trazado 6803" d="M24.8,34.727A1.806,1.806,0,0,1,23,32.92V29.307a1.807,1.807,0,0,1,3.613,0V32.92A1.806,1.806,0,0,1,24.8,34.727Z" transform="translate(-22.998 -27.5)" fill="#103b57"/>
  </g>
  <g id="Grupo_984" data-name="Grupo 984" transform="translate(41.549 58.715)">
    <path id="Trazado_6804" data-name="Trazado 6804" d="M24.8,39.728A1.806,1.806,0,0,1,23,37.922V34.307a1.807,1.807,0,1,1,3.613,0v3.615A1.806,1.806,0,0,1,24.8,39.728Z" transform="translate(-22.998 -32.5)" fill="#103b57"/>
  </g>
  <g id="Grupo_985" data-name="Grupo 985" transform="translate(41.549 67.75)">
    <path id="Trazado_6805" data-name="Trazado 6805" d="M24.8,44.728A1.806,1.806,0,0,1,23,42.921V39.308a1.807,1.807,0,1,1,3.613,0v3.613A1.806,1.806,0,0,1,24.8,44.728Z" transform="translate(-22.998 -37.501)" fill="#103b57"/>
  </g>
  <g id="Grupo_986" data-name="Grupo 986" transform="translate(41.549 76.783)">
    <path id="Trazado_6806" data-name="Trazado 6806" d="M24.8,49.728A1.806,1.806,0,0,1,23,47.921V44.308a1.807,1.807,0,1,1,3.613,0v3.613A1.806,1.806,0,0,1,24.8,49.728Z" transform="translate(-22.998 -42.501)" fill="#103b57"/>
  </g>
  <g id="Grupo_987" data-name="Grupo 987" transform="translate(41.549 85.817)">
    <path id="Trazado_6807" data-name="Trazado 6807" d="M24.8,54.728A1.806,1.806,0,0,1,23,52.921V49.308a1.807,1.807,0,1,1,3.613,0v3.613A1.806,1.806,0,0,1,24.8,54.728Z" transform="translate(-22.998 -47.501)" fill="#103b57"/>
  </g>
</svg>
