<svg xmlns="http://www.w3.org/2000/svg" width="80.15" height="115.22" viewBox="0 0 80.15 115.22">
  <path id="lightbulb-solid" d="M21.054,99.582a7.017,7.017,0,0,0,1.175,3.877l3.746,5.631a7.011,7.011,0,0,0,5.839,3.13H45.339a7.011,7.011,0,0,0,5.839-3.13l3.746-5.631A7.011,7.011,0,0,0,56.1,99.582l.009-8.405H21.043l.011,8.405ZM0,38.574A38.36,38.36,0,0,0,9.547,63.951c3.621,4.131,9.284,12.763,11.443,20.044.009.057.015.114.024.171H56.135c.009-.057.015-.112.024-.171,2.159-7.281,7.822-15.912,11.443-20.044A38.567,38.567,0,1,0,0,38.574ZM38.575,21.04A17.555,17.555,0,0,0,21.041,38.574a3.507,3.507,0,0,1-7.014,0A24.575,24.575,0,0,1,38.575,14.027a3.507,3.507,0,1,1,0,7.014Z" transform="translate(1.5 1.501)" fill="none" stroke="#103b57" stroke-width="3"/>
</svg>
