<svg xmlns="http://www.w3.org/2000/svg" width="168" height="67.206" viewBox="0 0 168 67.206">
  <g id="surface1" transform="translate(0 -0.492)">
    <path id="Trazado_6808" data-name="Trazado 6808" d="M240,86.891h11.2v5.6H240Zm0,0" transform="translate(-170 -61.199)" fill="#103b57"/>
    <path id="Trazado_6809" data-name="Trazado 6809" d="M165.6,17.32,146.577,14.6A95.991,95.991,0,0,0,135.8,8.892,94.292,94.292,0,0,0,96.79.492h-3.3A95.176,95.176,0,0,0,48.04,12.081l-9.6,5.236A66.16,66.16,0,0,0,6.423,26,12.783,12.783,0,0,0,0,37.066V53.692a2.8,2.8,0,0,0,2.8,2.8h9.4a16.738,16.738,0,0,0,31.592,0H118.6a16.738,16.738,0,0,0,31.592,0h1a2.813,2.813,0,0,0,1.042-.2l9.069-3.639A10.588,10.588,0,0,0,168,42.772V20.092A2.8,2.8,0,0,0,165.6,17.32ZM38.973,53.132a11.2,11.2,0,1,1,.227-2.24A11.2,11.2,0,0,1,38.973,53.132ZM89.6,50.892H44.8a16.8,16.8,0,1,0-33.6,0H5.6V37.066a7.163,7.163,0,0,1,3.6-6.207,60.538,60.538,0,0,1,30-7.966H89.6Zm0-33.6H50.182l.54-.3A89.529,89.529,0,0,1,89.6,6.215Zm5.6-11.2h1.585A88.619,88.619,0,0,1,129.73,12.4l-4.889,4.889H95.2Zm50.174,47.04a11.2,11.2,0,1,1,.227-2.24A11.2,11.2,0,0,1,145.373,53.132ZM162.4,25.692H154v5.6h8.4v11.48a5.011,5.011,0,0,1-3.17,4.678L151.2,50.676c0-.258-.033-.513-.05-.77s-.023-.559-.05-.84-.084-.561-.129-.84-.078-.561-.134-.815-.138-.538-.211-.8-.129-.534-.213-.8-.185-.509-.279-.764-.182-.517-.28-.77-.23-.481-.347-.719-.232-.5-.363-.739-.28-.445-.407-.669-.279-.48-.439-.708-.309-.412-.463-.619-.328-.451-.507-.667-.346-.384-.521-.56-.367-.414-.559-.61-.384-.351-.577-.524-.4-.378-.614-.561-.428-.321-.64-.481-.426-.33-.65-.48-.476-.279-.717-.436-.437-.28-.664-.4-.509-.247-.767-.37-.459-.232-.7-.333-.561-.207-.84-.308-.463-.18-.7-.255c-.319-.1-.646-.169-.972-.25-.213-.05-.417-.117-.632-.162-.344-.071-.7-.109-1.047-.161-.207-.027-.406-.073-.613-.092a17.018,17.018,0,0,0-1.708-.087,16.816,16.816,0,0,0-16.8,16.8H95.2v-28H126a2.8,2.8,0,0,0,1.979-.82l7.261-7.261a89.786,89.786,0,0,1,8.876,4.856,2.81,2.81,0,0,0,1.086.4l17.2,2.455Zm0,0" transform="translate(0 0)" fill="#103b57"/>
  </g>
</svg>
