<svg xmlns="http://www.w3.org/2000/svg" width="93.516" height="111.563" viewBox="0 0 93.516 111.563">
  <g id="tower" transform="translate(-41.413)">
    <g id="Grupo_988" data-name="Grupo 988" transform="translate(41.413)">
      <path id="Trazado_6810" data-name="Trazado 6810" d="M133.741,36.159l-30.4-8.685V12.3H122.63v3.494h-2.875a1.637,1.637,0,0,0-1.637,1.637V24.2a1.637,1.637,0,0,0,1.637,1.637h9.024a1.637,1.637,0,0,0,1.637-1.637V17.429a1.637,1.637,0,0,0-1.637-1.637H125.9V12.3h7.388a1.637,1.637,0,0,0,.45-3.211L102.194.074l-.005,0-.033-.009-.038-.009c-.035-.009-.07-.018-.106-.025s-.052-.008-.078-.012l-.078-.01c-.036,0-.072,0-.109-.005l-.04,0H74.634L74.6,0c-.037,0-.075,0-.112.006s-.05.006-.075.01-.054.007-.081.012-.07.015-.1.024l-.04.009-.034.01h0L42.6,9.087a1.637,1.637,0,0,0,.45,3.211h7.387v3.494H47.562a1.637,1.637,0,0,0-1.637,1.637V24.2a1.637,1.637,0,0,0,1.637,1.637h9.024A1.637,1.637,0,0,0,58.223,24.2V17.429a1.637,1.637,0,0,0-1.637-1.637H53.71V12.3H73V27.474L42.6,36.159a1.637,1.637,0,0,0,.45,3.211h7.387v3.494H47.562A1.637,1.637,0,0,0,45.925,44.5v6.768a1.637,1.637,0,0,0,1.637,1.637h9.024a1.637,1.637,0,0,0,1.637-1.637V44.5a1.637,1.637,0,0,0-1.637-1.637H53.71V39.37H73V55.552L66.3,78.982v0l-.013.046v0l0,.011,0,.006L59.863,101.52H56.585a1.637,1.637,0,0,0-1.637,1.637v5.132H51.6a1.637,1.637,0,1,0,0,3.274h73.133a1.637,1.637,0,0,0,0-3.274h-3.345v-5.132a1.637,1.637,0,0,0-1.637-1.637h-3.278l-6.42-22.47,0-.01-.015-.052,0-.008-6.694-23.428V39.37H122.63v3.494h-2.875a1.637,1.637,0,0,0-1.637,1.637v6.768a1.637,1.637,0,0,0,1.637,1.637h9.024a1.637,1.637,0,0,0,1.637-1.637V44.5a1.637,1.637,0,0,0-1.637-1.637H125.9V39.37h7.388a1.637,1.637,0,0,0,.449-3.211Zm-6.6-17.094V22.56h-5.751V19.066Zm-23.8-15.259L121.6,9.024H103.343ZM54.949,19.066V22.56H49.2V19.066Zm0,27.072v3.495H49.2V46.138ZM76.271,3.274h23.8V9.024h-23.8Zm23.8,9.024V25.651L80.04,12.3h20.03Zm-23.8,1.422L96.3,27.072H76.271V13.719Zm0,16.626h23.8V36.1h-23.8ZM73.059,77.833,88.17,67.255l15.112,10.578Zm28.482,3.274L88.17,87.792,74.8,81.106ZM79.827,57.418H96.513l-8.343,5.84ZM100.069,39.37V52.723L80.04,39.37Zm-23.8,1.422L96.3,54.145H76.271ZM54.737,9.024,73,3.807V9.024Zm0,27.072L73,30.879V36.1H54.737ZM75.577,58.44l9.739,6.817L70.708,75.482ZM68.9,81.815,84.51,89.622,63.694,100.03Zm46.343,22.98h2.877v3.495h-59.9v-3.495H76.555a1.637,1.637,0,1,0,0-3.274H68.031L88.17,91.452l20.139,10.069H83.853a1.637,1.637,0,0,0,0,3.274h31.389Zm-2.595-4.765L91.83,89.622l15.612-7.806Zm-7.014-24.547L91.024,65.257l9.739-6.817ZM103.343,36.1V30.879L121.6,36.1Zm23.8,10.041v3.495h-5.751V46.138Z" transform="translate(-41.413)" fill="#103b57"/>
    </g>
  </g>
</svg>
