<svg xmlns="http://www.w3.org/2000/svg" width="31.862" height="31.054" viewBox="0 0 31.862 31.054">
  <g id="balance-de-peso" transform="translate(0 -4.514)">
    <g id="Layer_5_48_" transform="translate(0 4.514)">
      <g id="Grupo_944" data-name="Grupo 944" transform="translate(0)">
        <path id="Trazado_6773" data-name="Trazado 6773" d="M13.007,110.9a1.115,1.115,0,0,0,.015-1.1L7.5,98.758a1.038,1.038,0,0,0-.923-.634,1.038,1.038,0,0,0-.923.635L.138,109.8a1.115,1.115,0,0,0,.015,1.1,1.116,1.116,0,0,0,.982.507H12.026A1.116,1.116,0,0,0,13.007,110.9ZM6.58,100.168c.109,0,.177.159.177.159l3.911,7.822c.279.528-.07.38-.23.342a17.112,17.112,0,0,0-3.858-.405,17.181,17.181,0,0,0-3.818.4c-.175.041-.581.2-.269-.335L6.4,100.335S6.478,100.168,6.58,100.168Z" transform="translate(0 -89.743)" fill="#0155d3"/>
        <path id="Trazado_6774" data-name="Trazado 6774" d="M221.909,68.771,216.39,57.732a.988.988,0,0,0-1.845,0l-5.519,11.038a1.074,1.074,0,0,0,1,1.612h10.891a1.074,1.074,0,0,0,1-1.612Zm-6.442-9.533c.148,0,.264.236.264.236l3.774,7.549c.32.567-.116.455-.331.407a18.684,18.684,0,0,0-7.5.019c-.184.043-.573.094-.194-.534l3.711-7.422S215.314,59.238,215.467,59.238Z" transform="translate(-190.185 -52.39)" fill="#0155d3"/>
        <path id="Trazado_6775" data-name="Trazado 6775" d="M5.465,11.232a.99.99,0,0,0,.16-.013l29.09-4.748A.985.985,0,1,0,34.4,4.527L22.586,6.455c-.3.076-.351-.226-.395-.357a2.3,2.3,0,0,0-4.478.728c0,.161.06.41-.2.457L5.308,9.275a.985.985,0,0,0,.157,1.957Z" transform="translate(-4.08 -4.514)" fill="#0155d3"/>
        <path id="Trazado_6776" data-name="Trazado 6776" d="M44.209,89.55V71.5a.985.985,0,1,0-1.97,0V89.55c0,.373-.33.407-.494.418-5.547.372-10.085,2.758-11.534,4.72-.253.343-.6.976.747.976H55.49c1.343,0,1.029-.57.817-.877-1.365-1.976-5.946-4.432-11.573-4.816C44.56,89.959,44.209,89.968,44.209,89.55Z" transform="translate(-27.293 -64.611)" fill="#0155d3"/>
      </g>
    </g>
  </g>
</svg>
