<svg id="project" xmlns="http://www.w3.org/2000/svg" width="34.133" height="34.133" viewBox="0 0 34.133 34.133">
  <path id="Trazado_6759" data-name="Trazado 6759" d="M33.633,3.313H18.051V.5a.5.5,0,0,0-.5-.5H14.431a.5.5,0,0,0-.5.5V3.313H7.812a.5.5,0,0,0-.5.5v4.3a3.806,3.806,0,0,0-.906.673V7.315c0-.906-.9-1.651-2.243-1.9V4.332a.5.5,0,0,0-.5-.5,3.827,3.827,0,0,0-2.469.934A3.41,3.41,0,0,0,0,7.376V9.471a.5.5,0,0,0,1,0V7.376a2.6,2.6,0,0,1,2.163-2.5v19.18A3.824,3.824,0,0,0,1,25.019c0-.681,0-12.891,0-12.891a.5.5,0,0,0-1,0V27.659a.5.5,0,0,0,.007.082C.056,29.208,1.413,30.3,3.2,30.3a3.826,3.826,0,0,0,2.213-.653v1.838c0,1.69,1.69,2.644,3.2,2.644,1.607,0,3.2-.905,3.2-2.645V24.418H26.061L15.686,33.252a.5.5,0,0,0,.324.881H31.067a.5.5,0,0,0,.5-.5V31.207a.5.5,0,0,0-1,0v1.925h-13.2L30.567,21.9v6.554a.5.5,0,0,0,1,0v-4.03h2.065a.5.5,0,0,0,.5-.5V3.813A.5.5,0,0,0,33.633,3.313Zm-.5,1V16.44H21.423V4.313ZM17.051,1V13.8h-2.12V12.518h.363a.5.5,0,0,0,0-1h-.363v-1.31h.83a.5.5,0,0,0,0-1h-.83V7.9h.363a.5.5,0,1,0,0-1h-.363V5.588h.83a.5.5,0,0,0,0-1h-.83V3.278h.363a.5.5,0,0,0,0-1h-.363V1ZM7.9,8.919A2.635,2.635,0,0,1,8.576,8.7l0,19.18a3.818,3.818,0,0,0-2.161.965c0-.672,0-1.191,0-1.205l0-16.438A2.59,2.59,0,0,1,7.9,8.919Zm2.926,21.11L10.772,30a4.532,4.532,0,0,0-2.112-.5v-.622a2.923,2.923,0,0,1,.4-.031.5.5,0,0,0,.516-.5l0-18.08c.663.164,1.243.5,1.243.872ZM5.406,7.315V26.193a4.452,4.452,0,0,0-2.163-.518v-.622a2.9,2.9,0,0,1,.4-.03.5.5,0,0,0,.516-.5V6.44c.762.182,1.243.56,1.243.875Zm0,20.58c0,.763-1.009,1.408-2.2,1.408C1.95,29.3,1,28.6,1,27.659a2.422,2.422,0,0,1,1.238-2.3V26.2a.5.5,0,0,0,.547.5,3.683,3.683,0,0,1,2.084.353.846.846,0,0,1,.532.848ZM8.62,33.133h0c-1.253,0-2.2-.707-2.2-1.644a2.422,2.422,0,0,1,1.238-2.3v.841a.5.5,0,0,0,.547.5c.848-.08,2.657.056,2.617,1.2,0,.763-1.009,1.408-2.2,1.408Zm3.2-21.989c0-.9-.9-1.649-2.243-1.9V8.161a.5.5,0,0,0-.5-.5,3.621,3.621,0,0,0-.764.084V4.313h5.619V14.3a.5.5,0,0,0,.5.5h3.119a.5.5,0,0,0,.5-.5V4.313h2.372V23.419h-8.6Zm19.457,9.215a.5.5,0,0,0-.534.073l-3.508,2.987H21.423V17.44h11.71v5.979H31.567V20.813a.5.5,0,0,0-.29-.454Z" fill="#0155d3"/>
  <path id="Trazado_6760" data-name="Trazado 6760" d="M350.339,104.278h4.607a.5.5,0,0,0,.354-.147l2.3-2.3a.5.5,0,0,0,.147-.354v-4.6a.507.507,0,0,0-.5-.5h-4.608a.5.5,0,0,0-.353.146l-2.3,2.3a.506.506,0,0,0-.147.354v4.6A.5.5,0,0,0,350.339,104.278Zm.5-4.6h3.607v3.6h-3.607Zm4.607,2.895V99.384l1.3-1.3v3.187Zm-2.6-5.2h3.193l-1.3,1.3h-3.192Z" transform="translate(-326.517 -89.95)" fill="#0155d3"/>
  <path id="Trazado_6761" data-name="Trazado 6761" d="M362.831,314.087h-1.657a.5.5,0,0,0,0,1h1.657A.5.5,0,0,0,362.831,314.087Z" transform="translate(-336.644 -293.148)" fill="#0155d3"/>
  <path id="Trazado_6762" data-name="Trazado 6762" d="M365.419,284.242h-4.245a.5.5,0,0,0,0,1h4.245A.5.5,0,0,0,365.419,284.242Z" transform="translate(-336.644 -265.293)" fill="#0155d3"/>
  <path id="Trazado_6763" data-name="Trazado 6763" d="M337.81,383.64l-6.037,5.14a.5.5,0,0,0,.324.881h6.037a.5.5,0,0,0,.5-.5v-5.14A.505.505,0,0,0,337.81,383.64Zm-.176,5.021h-4.178l4.178-3.558Z" transform="translate(-309.495 -357.953)" fill="#0155d3"/>
</svg>
