<svg xmlns="http://www.w3.org/2000/svg" width="32.685" height="36.67" viewBox="0 0 32.685 36.67">
  <g id="surface1" transform="translate(-0.184)">
    <path id="Trazado_6740" data-name="Trazado 6740" d="M32.4,17.4l-1.459-.628v-1a14.366,14.366,0,0,0-9.625-13.61V.756A.756.756,0,0,0,20.56,0H12.47a.756.756,0,0,0-.756.756V2.17a14.366,14.366,0,0,0-9.625,13.61v1.006L.645,17.4a.755.755,0,0,0-.461.7v3.969a.756.756,0,0,0,.756.756h.983v1.512a.756.756,0,0,0,.756.756H5.393A11.438,11.438,0,0,0,6.52,27.794L4.6,29.714a.756.756,0,0,0,0,1.066l3.213,3.213a.755.755,0,0,0,1.066,0l1.92-1.92A11.421,11.421,0,0,0,13.5,33.2v2.714a.756.756,0,0,0,.756.756h4.536a.756.756,0,0,0,.756-.756V33.2a11.411,11.411,0,0,0,2.707-1.126l1.921,1.92a.755.755,0,0,0,1.066,0l3.213-3.213a.756.756,0,0,0,0-1.066l-1.921-1.921a11.437,11.437,0,0,0,1.127-2.707h2.714a.756.756,0,0,0,.756-.756V22.819h.983a.756.756,0,0,0,.756-.756V18.093A.756.756,0,0,0,32.4,17.4ZM13.211,1.52H19.8V14.154H13.226ZM29.625,23.575H27.108a.756.756,0,0,0-.756.6A9.938,9.938,0,0,1,24.968,27.5a.756.756,0,0,0,.1.945l1.807,1.807L24.711,32.4,22.9,30.591a.756.756,0,0,0-.945-.1,9.943,9.943,0,0,1-3.327,1.383.756.756,0,0,0-.6.756V35.18H15.01V32.61a.756.756,0,0,0-.6-.756,9.91,9.91,0,0,1-3.327-1.384.756.756,0,0,0-.945.1L8.334,32.376l-2.14-2.14L8,28.429a.756.756,0,0,0,.1-.945,9.948,9.948,0,0,1-1.406-3.312.756.756,0,0,0-.756-.6H3.42v-.756h6.91a6.23,6.23,0,0,0,12.37,0h6.918Zm-17.753-.756H21.18a4.718,4.718,0,0,1-9.315,0Zm19.492-1.512H1.688V18.592l1.459-.628a.755.755,0,0,0,.461-.7V15.757A12.852,12.852,0,0,1,11.714,3.773V14.91a.756.756,0,0,0,.756.756h8.105a.756.756,0,0,0,.756-.756V3.773a12.853,12.853,0,0,1,8.113,12v1.512a.755.755,0,0,0,.461.7l1.459.628v2.7Zm0,0" transform="translate(0)" fill="#0155d3"/>
  </g>
</svg>
