<svg xmlns="http://www.w3.org/2000/svg" width="36.436" height="36.415" viewBox="0 0 36.436 36.415">
  <path id="target" d="M36.123,7.8a1.067,1.067,0,0,0-.329-1.733L32.2,4.506,30.933.86A1.067,1.067,0,0,0,29.17.455L27.135,2.49A18.675,18.675,0,0,0,18.205.147,18.205,18.205,0,0,0,5.332,31.225,18.206,18.206,0,0,0,34.226,9.7Zm-7.476,4.457-2.206-.592,5.138-5.1,1.926.838Zm-.4,6.09a10.04,10.04,0,1,1-10.04-10.04,9.359,9.359,0,0,1,4.448,1.031l.55,2.533L21.85,13.222a6.3,6.3,0,1,0,1.505,1.514l1.334-1.325,2.625.7a9.337,9.337,0,0,1,.931,4.238Zm-5.879,0A4.166,4.166,0,1,1,20.3,14.76l-2.886,2.867a1.067,1.067,0,0,0,1.5,1.514l2.887-2.868a4.134,4.134,0,0,1,.559,2.079ZM29.474,3.169l.639,1.844L25,10.092,24.563,8.08Zm4.8,15.183A16.071,16.071,0,0,1,6.842,29.716,16.071,16.071,0,0,1,18.205,2.282a16.468,16.468,0,0,1,7.35,1.787L22.642,6.983l-.008.009a11.789,11.789,0,0,0-4.428-.814A12.174,12.174,0,1,0,30.38,18.352a11.669,11.669,0,0,0-.693-4.115c.011-.01.023-.02.034-.031l2.921-2.921A16.063,16.063,0,0,1,34.276,18.352Z" transform="translate(0 -0.142)" fill="#0155d3"/>
</svg>
