<svg xmlns="http://www.w3.org/2000/svg" width="34.132" height="34.132" viewBox="0 0 34.132 34.132">
  <path id="team" d="M34.132,14.313H32.895l-1.844.97a2.737,2.737,0,0,0-.656-.27l-2.319-.58V14.17a3.866,3.866,0,0,0,1.652-3.159v-.962a3.955,3.955,0,0,0-3.735-3.991c-.1,0-.208,0-.311.006l.6-1.408L23.367,1.741,21.649,2.86A9.312,9.312,0,0,0,19.588,2L19.164,0h-4.2l-.424,2.006a9.3,9.3,0,0,0-2.061.855L10.765,1.742,7.852,4.655l.591,1.409c-.023,0-.044-.005-.067-.006A3.855,3.855,0,0,0,4.4,9.909v1.1a3.864,3.864,0,0,0,1.652,3.159v.264l-1.513.378L1.8,13.212H0V24.62l5.416,1.805H6.47l.132-.461,1.66,1a1.714,1.714,0,0,0,1.653,1.661,1.714,1.714,0,0,0,1.652,1.652,1.714,1.714,0,0,0,1.652,1.652A1.712,1.712,0,0,0,15.9,33.283l.488.431a1.676,1.676,0,0,0,1.108.418h.1a1.676,1.676,0,0,0,1.673-1.654,1.675,1.675,0,0,0,1.652-1.652,1.674,1.674,0,0,0,1.652-1.653,1.693,1.693,0,0,0,1.654-1.689,1.612,1.612,0,0,0-.008-.165l9.918-4.958Zm-5.505-4.265v.962a2.763,2.763,0,0,1-1.378,2.382l-.275.159,0,1.742,2.75.687-6.054,3.186V17.684a2.739,2.739,0,0,0-.788-1.918l1.889-.472V13.55l-.275-.159a2.76,2.76,0,0,1-1.377-2.381v-1.1a2.752,2.752,0,0,1,2.838-2.751,2.846,2.846,0,0,1,2.667,2.89ZM17.9,18.734l-2.492-.8a6.8,6.8,0,0,0-3.528-.161l-.316.07v-.163a1.65,1.65,0,0,1,1.251-1.6l3.153-.788V13.55l-.275-.159a2.76,2.76,0,0,1-1.377-2.381v-1.1a2.752,2.752,0,0,1,2.838-2.751,2.846,2.846,0,0,1,2.667,2.89v.962a2.763,2.763,0,0,1-1.378,2.382l-.275.159,0,1.742,3.153.788a1.65,1.65,0,0,1,1.251,1.6v2.063l-.136.072H22.1l-3.385-.967a3.47,3.47,0,0,0-.817-.117Zm-6.212-10.5a6.051,6.051,0,0,1,10.741-.044,3.829,3.829,0,0,0-.4,1.714v1.1a3.864,3.864,0,0,0,1.652,3.159v.264l-2.2.551-2.2-.551V14.17a3.866,3.866,0,0,0,1.652-3.159v-.962a3.955,3.955,0,0,0-3.735-3.991,3.854,3.854,0,0,0-3.972,3.852v1.1a3.864,3.864,0,0,0,1.652,3.159v.264l-2.2.551-2.2-.551v-.264a3.866,3.866,0,0,0,1.652-3.159v-.962a4.058,4.058,0,0,0-.427-1.809ZM9.152,4.91l1.759-1.759,1.548,1.007.3-.182a8.215,8.215,0,0,1,2.384-.989l.339-.081L15.861,1.1h2.411l.382,1.806.339.081a8.223,8.223,0,0,1,2.384.989l.3.182L23.22,3.151l1.757,1.757L24.352,6.37a3.848,3.848,0,0,0-1.162.773c-.023.022-.042.046-.064.068a7.149,7.149,0,0,0-12.142.033A3.883,3.883,0,0,0,9.77,6.383Zm-2,10.384V13.55l-.275-.159A2.76,2.76,0,0,1,5.5,11.01v-1.1A2.752,2.752,0,0,1,8.343,7.158a2.846,2.846,0,0,1,2.667,2.89v.962a2.763,2.763,0,0,1-1.378,2.382l-.275.159,0,1.742,1.889.472a2.739,2.739,0,0,0-.788,1.918v.408l-1.717.382.045-.156L8.808,17.3,5.9,15.607ZM1.1,14.313h.4l3.959,2.309-2,7.991L1.1,23.826Zm4.493,11.01-1.084-.361L6.451,17.2l1.256.732v.157L5.64,25.324Zm3.764,1.585a.621.621,0,0,1,.181-.437l.968-.968a.617.617,0,0,1,.873.873l-.968.968a.617.617,0,0,1-1.054-.437ZM11.01,28.56a.621.621,0,0,1,.181-.437l.968-.968a.617.617,0,0,1,.873.873L12.064,29a.617.617,0,0,1-1.054-.437Zm1.652,1.652a.621.621,0,0,1,.181-.437l.968-.968a.617.617,0,0,1,.873.873l-.968.968a.617.617,0,0,1-1.054-.437ZM14.93,32.48a.617.617,0,0,1-.437-1.054l.968-.968a.617.617,0,0,1,.873.873l-.968.968A.621.621,0,0,1,14.93,32.48Zm2.662.551h-.1a.57.57,0,0,1-.379-.144l-.412-.363.413-.413a1.712,1.712,0,0,0,.347-.512l.5.417a.574.574,0,0,1-.368,1.015Zm4.937-4.955h-.1a.591.591,0,0,1-.379-.138L19.07,25.451l-.705.846,2.9,2.416a.575.575,0,0,1-.368,1.015h-.12a.574.574,0,0,1-.367-.133L17.418,27.1l-.705.846,2.9,2.416a.574.574,0,0,1-.368,1.014.909.909,0,0,1-.579-.21l-1.229-1.024a1.713,1.713,0,0,0-1.478-.962,1.714,1.714,0,0,0-1.652-1.652,1.714,1.714,0,0,0-1.652-1.652,1.714,1.714,0,0,0-2.927-1.155l-.968.968a1.7,1.7,0,0,0-.154.188L6.915,24.867,8.4,19.679l3.717-.826a5.671,5.671,0,0,1,2.954.134l.811.259L13.13,20.62a1.835,1.835,0,0,0-1.019,1.649v.109A1.844,1.844,0,0,0,14.9,23.96l2.05-1.229a1.136,1.136,0,0,1,1.32.127l4.651,4.186a.593.593,0,0,1-.4,1.033Zm10.5-6.4-9.275,4.638c-.03-.032-.062-.062-.095-.092L19.011,22.04a2.215,2.215,0,0,0-2.624-.254l-2.051,1.23a.742.742,0,0,1-1.124-.638V22.27a.739.739,0,0,1,.411-.664l3.071-1.535a2.393,2.393,0,0,1,1.716-.159l3.46.988.838.021,10.324-5.434Zm0,0" transform="translate(0 0)" fill="#0155d3"/>
</svg>
