<svg xmlns="http://www.w3.org/2000/svg" width="267" height="51.658" viewBox="0 0 267 51.658">
  <g id="logo_ME_RESORTES" data-name="logo_ME RESORTES" transform="translate(-0.02 -0.003)">
    <rect id="Rect치ngulo_2997" data-name="Rect치ngulo 2997" width="4.323" height="23.624" transform="translate(17.169 15.024)" fill="#103b57"/>
    <rect id="Rect치ngulo_2998" data-name="Rect치ngulo 2998" width="4.394" height="25.866" transform="translate(30.317 12.603)" fill="#103b57"/>
    <path id="Trazado_6713" data-name="Trazado 6713" d="M42.22,19.29c-.482-2.072.214-3.644,2.313-4.073,1.956-.4,2.876,1.116,3.573,2.68,2.742,6.02,5.5,12.04,8.744,19.15,2.072-8.3.438-14.541-4.466-19.8-5.439-5.8-12.183-7.717-19.9-5.716a26.375,26.375,0,0,0-5.305,2.251c-1.92.982-3.992,2.278-5.359-.322s.893-3.725,2.68-4.841c9.619-6.091,23.249-4.341,31.565,4.037S66,34.322,60.075,43.808c-.893,1.393-1.67,2.974-3.662,2.68-1.7-.214-2.179-1.724-2.939-3.028" transform="translate(-11.787 -4.99)" fill="#fff"/>
    <path id="Trazado_6714" data-name="Trazado 6714" d="M31.989,42.833c.313,2,.438,4.091-1.974,4.77-2.8.777-3.43-1.626-4.287-3.474-2.68-5.716-5.261-11.442-8.4-18.3-2.072,9.307.071,16.077,6.154,21.436s14.773,6.306,22.445,2.528c2.072-1.018,4.662-3.832,6.386-.339s-1.876,4.466-4.135,5.645a25.813,25.813,0,0,1-35.03-34c.893-1.983,1.67-4.546,4.216-4.725,2.876-.214,3.046,2.724,4.118,4.555" transform="translate(-10.64 -6.204)" fill="#fff"/>
    <path id="Trazado_6715" data-name="Trazado 6715" d="M29.844,21.229c-.322-2.045-.232-4.1,2.126-4.734s3.251,1.331,4.073,3.162c1.786,4.028,9.432,18.8,11.227,23.178.277,2.188.25,4.466-2.456,4.886-2.447.393-3.046-1.786-3.841-3.573C39.186,40.254,37.4,36.4,35.248,31.831" transform="translate(-12.675 -6.206)" fill="#fff"/>
    <path id="Trazado_6716" data-name="Trazado 6716" d="M78.12,41.706V22.53h5.8L87.4,35.606,90.839,22.53h5.815V41.706H93.081V26.612L89.249,41.706H85.515l-3.8-15.095V41.706Z" transform="translate(-17.846 -6.863)" fill="#fff"/>
    <path id="Trazado_6717" data-name="Trazado 6717" d="M103.14,43.56V39.88h3.68v3.68Z" transform="translate(-20.519 -8.717)" fill="#fff"/>
    <path id="Trazado_6718" data-name="Trazado 6718" d="M111.51,41.706V22.53h14.219v3.242H115.377v4.252h9.637v3.233h-9.637v5.216H126.1v3.233Z" transform="translate(-21.413 -6.863)" fill="#fff"/>
    <path id="Trazado_6719" data-name="Trazado 6719" d="M131.49,43.56V39.88h3.671v3.68Z" transform="translate(-23.548 -8.717)" fill="#fff"/>
    <path id="Trazado_6720" data-name="Trazado 6720" d="M148.2,41.7V22.528h8.155a14.157,14.157,0,0,1,4.466.509,4.466,4.466,0,0,1,2.233,1.84,5.591,5.591,0,0,1,.84,3.028,5.109,5.109,0,0,1-1.277,3.573,6.047,6.047,0,0,1-3.787,1.786,9.119,9.119,0,0,1,2.072,1.617,21.848,21.848,0,0,1,2.206,3.108l2.34,3.716h-4.636l-2.8-4.171a27.146,27.146,0,0,0-2.045-2.822,2.974,2.974,0,0,0-1.161-.795,6.44,6.44,0,0,0-1.947-.214h-.786V41.74Zm3.876-11.066h2.867a14.362,14.362,0,0,0,3.474-.241,2.036,2.036,0,0,0,1.09-.8,2.528,2.528,0,0,0,.393-1.438,2.349,2.349,0,0,0-.518-1.572,2.412,2.412,0,0,0-1.456-.75c-.322-.045-1.259-.063-2.831-.063h-3.019Z" transform="translate(-25.333 -6.862)" fill="#fff"/>
    <path id="Trazado_6721" data-name="Trazado 6721" d="M169.85,41.706V22.53h14.228v3.242H173.726v4.252h9.655v3.233h-9.655v5.216h10.718v3.233Z" transform="translate(-27.645 -6.863)" fill="#fff"/>
    <path id="Trazado_6722" data-name="Trazado 6722" d="M188.76,35.414l3.787-.357a4.591,4.591,0,0,0,1.384,2.787,4.127,4.127,0,0,0,2.8.893,4.323,4.323,0,0,0,2.822-.795,2.367,2.367,0,0,0,.947-1.849,1.786,1.786,0,0,0-.4-1.161,3.323,3.323,0,0,0-1.393-.831c-.456-.152-1.483-.429-3.1-.831a10.584,10.584,0,0,1-4.368-1.9,5.029,5.029,0,0,1-.938-6.6,5.2,5.2,0,0,1,2.394-1.938,9.593,9.593,0,0,1,3.778-.67,8.173,8.173,0,0,1,5.431,1.581,5.573,5.573,0,0,1,1.92,4.225l-3.876.17a3.287,3.287,0,0,0-1.063-2.126,3.939,3.939,0,0,0-2.456-.643,4.466,4.466,0,0,0-2.68.7,1.4,1.4,0,0,0-.607,1.188,1.456,1.456,0,0,0,.572,1.161A10.245,10.245,0,0,0,197.29,29.7a19,19,0,0,1,4.189,1.375A5.359,5.359,0,0,1,203.6,33.03a6.056,6.056,0,0,1-.152,6.136,5.439,5.439,0,0,1-2.59,2.144,10.915,10.915,0,0,1-4.171.7,8.342,8.342,0,0,1-5.591-1.679,7.369,7.369,0,0,1-2.34-4.912Z" transform="translate(-29.666 -6.823)" fill="#fff"/>
    <path id="Trazado_6723" data-name="Trazado 6723" d="M209,32.2a12.254,12.254,0,0,1,.893-4.921,9.1,9.1,0,0,1,1.786-2.635,7.467,7.467,0,0,1,2.456-1.733,10.477,10.477,0,0,1,4.135-.759,9.012,9.012,0,0,1,6.806,2.635,10.186,10.186,0,0,1,2.546,7.315,10.026,10.026,0,0,1-2.546,7.27,10.075,10.075,0,0,1-13.558,0A9.9,9.9,0,0,1,209,32.2Zm3.992-.134A7.145,7.145,0,0,0,214.5,37a5.171,5.171,0,0,0,7.619,0,7.317,7.317,0,0,0,1.483-5,7.116,7.116,0,0,0-1.447-4.921,4.886,4.886,0,0,0-3.841-1.617,4.948,4.948,0,0,0-3.859,1.635,7.287,7.287,0,0,0-1.474,4.966Z" transform="translate(-31.826 -6.822)" fill="#fff"/>
    <path id="Trazado_6724" data-name="Trazado 6724" d="M233.22,41.7V22.528h8.155a14.157,14.157,0,0,1,4.466.509,4.466,4.466,0,0,1,2.233,1.84,5.591,5.591,0,0,1,.84,3.028,5.109,5.109,0,0,1-1.277,3.573,6.047,6.047,0,0,1-3.787,1.786,9.119,9.119,0,0,1,2.072,1.617,21.846,21.846,0,0,1,2.206,3.108l2.34,3.716h-4.636l-2.8-4.171a28.625,28.625,0,0,0-2.045-2.822,2.974,2.974,0,0,0-1.161-.795,6.44,6.44,0,0,0-1.947-.214H237.1V41.74ZM237.1,30.638h2.867a14.407,14.407,0,0,0,3.474-.241,2.072,2.072,0,0,0,1.09-.8,2.528,2.528,0,0,0,.393-1.438,2.349,2.349,0,0,0-.518-1.572,2.412,2.412,0,0,0-1.456-.75c-.322-.045-1.259-.063-2.831-.063H237.1Z" transform="translate(-34.415 -6.862)" fill="#fff"/>
    <path id="Trazado_6725" data-name="Trazado 6725" d="M259.028,41.706V25.772h-5.7V22.53h15.246v3.242H262.86V41.706Z" transform="translate(-36.563 -6.863)" fill="#fff"/>
    <path id="Trazado_6726" data-name="Trazado 6726" d="M273.2,41.706V22.53h14.219v3.242H277.067v4.252H286.7v3.233h-9.628v5.216h10.718v3.233Z" transform="translate(-38.686 -6.863)" fill="#fff"/>
    <path id="Trazado_6727" data-name="Trazado 6727" d="M292.11,35.413l3.769-.366a4.582,4.582,0,0,0,1.375,2.787,4.162,4.162,0,0,0,2.8.893,4.323,4.323,0,0,0,2.822-.795,2.34,2.34,0,0,0,.947-1.849,1.786,1.786,0,0,0-.393-1.161,3.323,3.323,0,0,0-1.393-.831q-.679-.232-3.108-.831a10.584,10.584,0,0,1-4.368-1.9,5.029,5.029,0,0,1-.938-6.6,5.27,5.27,0,0,1,2.4-1.938,9.512,9.512,0,0,1,3.769-.67,8.21,8.21,0,0,1,5.439,1.581,5.564,5.564,0,0,1,1.956,4.234l-3.867.17a3.331,3.331,0,0,0-1.072-2.126,3.9,3.9,0,0,0-2.447-.643,4.4,4.4,0,0,0-2.68.7,1.385,1.385,0,0,0-.616,1.188,1.483,1.483,0,0,0,.572,1.161,10.236,10.236,0,0,0,3.573,1.286,19,19,0,0,1,4.18,1.375,5.359,5.359,0,0,1,2.117,1.956,5.7,5.7,0,0,1,.768,3.055,5.573,5.573,0,0,1-.893,3.081,5.439,5.439,0,0,1-2.59,2.144,10.879,10.879,0,0,1-4.171.7,8.316,8.316,0,0,1-5.582-1.679,7.288,7.288,0,0,1-2.376-4.912Z" transform="translate(-40.706 -6.822)" fill="#fff"/>
  </g>
</svg>
