<svg xmlns="http://www.w3.org/2000/svg" width="373.413" height="372.328" viewBox="0 0 373.413 372.328">
  <g id="logo_ME_RESORTES" data-name="logo_ME RESORTES" transform="translate(-0.02 -0.003)" opacity="0.43">
    <rect id="Rect치ngulo_3002" data-name="Rect치ngulo 3002" width="31.158" height="170.275" transform="translate(123.622 108.262)" fill="#fff"/>
    <rect id="Rect치ngulo_3003" data-name="Rect치ngulo 3003" width="31.673" height="186.433" transform="translate(218.383 90.816)" fill="#fff"/>
    <path id="Trazado_6728" data-name="Trazado 6728" d="M171.458,108.038C167.981,93.1,173,81.772,188.131,78.682c14.1-2.9,20.729,8.047,25.75,19.313,19.763,43.389,39.656,86.779,63.024,138.022,14.935-59.805,3.154-104.8-32.188-142.722-39.205-41.78-87.809-55.621-143.43-41.2A190.1,190.1,0,0,0,63.048,68.318C49.207,75.4,34.272,84.734,24.423,66S30.86,39.156,43.736,31.109c69.333-43.9,167.571-31.287,227.505,29.1s71.586,156.176,28.9,224.544c-6.438,10.043-12.038,21.437-26.394,19.313-12.231-1.545-15.708-12.425-21.18-21.823" transform="translate(47.762 -4.99)" fill="#fff"/>
    <path id="Trazado_6729" data-name="Trazado 6729" d="M164.39,207.184c2.253,14.42,3.154,29.484-14.227,34.377-20.15,5.6-24.72-11.716-30.9-25.042-19.313-41.2-37.918-82.466-60.578-131.907-14.935,67.08.515,115.877,44.355,154.5s106.478,45.45,161.777,18.218c14.935-7.339,33.6-27.617,46.029-2.446s-13.519,32.188-29.806,40.686A186.052,186.052,0,0,1,28.556,50.492C34.994,36.2,40.594,17.725,58.942,16.438c20.729-1.545,21.952,19.635,29.677,32.832" transform="translate(-10.64 56.804)" fill="#fff"/>
    <path id="Trazado_6730" data-name="Trazado 6730" d="M30.682,51.369C28.365,36.627,29.009,21.821,46,17.25s23.433,9.592,29.355,22.789C88.235,69.073,143.341,175.551,156.28,207.1c2,15.772,1.8,32.188-17.7,35.214-17.639,2.833-21.952-12.875-27.682-25.75C98.02,188.49,85.145,160.68,69.63,127.784" transform="translate(92.939 56.893)" fill="#fff"/>
  </g>
</svg>
