<svg xmlns="http://www.w3.org/2000/svg" width="298.934" height="57.836" viewBox="0 0 298.934 57.836">
  <g id="logo_ME_RESORTES" data-name="logo_ME RESORTES" transform="translate(-0.02 -0.003)">
    <rect id="Rect치ngulo_2997" data-name="Rect치ngulo 2997" width="4.84" height="26.45" transform="translate(19.22 16.82)" fill="#103b57"/>
    <rect id="Rect치ngulo_2998" data-name="Rect치ngulo 2998" width="4.92" height="28.96" transform="translate(33.94 14.11)" fill="#103b57"/>
    <path id="Trazado_6713" data-name="Trazado 6713" d="M44.71,21c-.54-2.32.24-4.08,2.59-4.56,2.19-.45,3.22,1.25,4,3,3.07,6.74,6.16,13.48,9.79,21.44,2.32-9.29.49-16.28-5-22.17-6.09-6.49-13.64-8.64-22.28-6.4a29.53,29.53,0,0,0-5.94,2.52c-2.15,1.1-4.47,2.55-6-.36s1-4.17,3-5.42C35.64,2.23,50.9,4.19,60.21,13.57S71.33,37.83,64.7,48.45c-1,1.56-1.87,3.33-4.1,3-1.9-.24-2.44-1.93-3.29-3.39" transform="translate(-10.64 -4.99)" fill="#0155d3"/>
    <path id="Trazado_6714" data-name="Trazado 6714" d="M34.54,46c.35,2.24.49,4.58-2.21,5.34-3.13.87-3.84-1.82-4.8-3.89-3-6.4-5.89-12.81-9.41-20.49-2.32,10.42.08,18,6.89,24s16.54,7.06,25.13,2.83c2.32-1.14,5.22-4.29,7.15-.38s-2.1,5-4.63,6.32A28.9,28.9,0,0,1,13.44,21.66c1-2.22,1.87-5.09,4.72-5.29,3.22-.24,3.41,3.05,4.61,5.1" transform="translate(-10.64 -4.99)" fill="#0155d3"/>
    <path id="Trazado_6715" data-name="Trazado 6715" d="M29.86,21.81c-.36-2.29-.26-4.59,2.38-5.3S35.88,18,36.8,20.05C38.8,24.56,47.36,41.1,49.37,46c.31,2.45.28,5-2.75,5.47-2.74.44-3.41-2-4.3-4-2-4.36-4-8.68-6.41-13.79" transform="translate(-10.64 -4.99)" fill="#0256d3"/>
    <path id="Trazado_6716" data-name="Trazado 6716" d="M78.12,44V22.53h6.49l3.9,14.64,3.85-14.64h6.51V44h-4V27.1L90.58,44H86.4L82.15,27.1V44Z" transform="translate(-10.64 -4.99)"/>
    <path id="Trazado_6717" data-name="Trazado 6717" d="M103.14,44V39.88h4.12V44Z" transform="translate(-10.64 -4.99)"/>
    <path id="Trazado_6718" data-name="Trazado 6718" d="M111.51,44V22.53h15.92v3.63H115.84v4.76h10.79v3.62H115.84v5.84h12V44Z" transform="translate(-10.64 -4.99)"/>
    <path id="Trazado_6719" data-name="Trazado 6719" d="M131.49,44V39.88h4.11V44Z" transform="translate(-10.64 -4.99)"/>
    <path id="Trazado_6720" data-name="Trazado 6720" d="M148.2,44V22.53h9.13a15.85,15.85,0,0,1,5,.57,5,5,0,0,1,2.5,2.06,6.26,6.26,0,0,1,.94,3.39,5.72,5.72,0,0,1-1.43,4,6.77,6.77,0,0,1-4.24,2,10.21,10.21,0,0,1,2.32,1.81,24.46,24.46,0,0,1,2.47,3.48L167.51,44h-5.19l-3.13-4.67a30.4,30.4,0,0,0-2.29-3.16,3.33,3.33,0,0,0-1.3-.89,7.21,7.21,0,0,0-2.18-.24h-.88v9Zm4.34-12.39h3.21a16.08,16.08,0,0,0,3.89-.27,2.28,2.28,0,0,0,1.22-.9,2.83,2.83,0,0,0,.44-1.61,2.63,2.63,0,0,0-.58-1.76,2.7,2.7,0,0,0-1.63-.84c-.36-.05-1.41-.07-3.17-.07h-3.38Z" transform="translate(-10.64 -4.99)"/>
    <path id="Trazado_6721" data-name="Trazado 6721" d="M169.85,44V22.53h15.93v3.63H174.19v4.76H185v3.62H174.19v5.84h12V44Z" transform="translate(-10.64 -4.99)"/>
    <path id="Trazado_6722" data-name="Trazado 6722" d="M188.76,37l4.24-.4a5.14,5.14,0,0,0,1.55,3.12,4.62,4.62,0,0,0,3.14,1,4.84,4.84,0,0,0,3.16-.89,2.65,2.65,0,0,0,1.06-2.07,2,2,0,0,0-.45-1.3,3.72,3.72,0,0,0-1.56-.93c-.51-.17-1.66-.48-3.47-.93a11.85,11.85,0,0,1-4.89-2.13,5.63,5.63,0,0,1-1.05-7.39,5.82,5.82,0,0,1,2.68-2.17,10.74,10.74,0,0,1,4.23-.75q4,0,6.08,1.77a6.24,6.24,0,0,1,2.15,4.73l-4.34.19a3.68,3.68,0,0,0-1.19-2.38,4.41,4.41,0,0,0-2.75-.72,5,5,0,0,0-3,.78,1.57,1.57,0,0,0-.68,1.33,1.63,1.63,0,0,0,.64,1.3,11.47,11.47,0,0,0,4,1.44A21.27,21.27,0,0,1,203,32.14a6,6,0,0,1,2.38,2.19,6.78,6.78,0,0,1-.17,6.87,6.09,6.09,0,0,1-2.9,2.4,12.22,12.22,0,0,1-4.67.78,9.34,9.34,0,0,1-6.26-1.88,8.25,8.25,0,0,1-2.62-5.5Z" transform="translate(-10.64 -4.99)"/>
    <path id="Trazado_6723" data-name="Trazado 6723" d="M209,33.4a13.72,13.72,0,0,1,1-5.51,10.191,10.191,0,0,1,2-2.95A8.36,8.36,0,0,1,214.75,23a11.73,11.73,0,0,1,4.63-.85A10.09,10.09,0,0,1,227,25.1a11.4,11.4,0,0,1,2.85,8.19q0,5.19-2.85,8.14a11.28,11.28,0,0,1-15.18,0A11.09,11.09,0,0,1,209,33.4Zm4.47-.15a8,8,0,0,0,1.69,5.53,5.79,5.79,0,0,0,8.53,0q1.66-1.86,1.66-5.6t-1.62-5.51a5.47,5.47,0,0,0-4.3-1.81,5.54,5.54,0,0,0-4.32,1.83,8.159,8.159,0,0,0-1.65,5.56Z" transform="translate(-10.64 -4.99)"/>
    <path id="Trazado_6724" data-name="Trazado 6724" d="M233.22,44V22.53h9.13a15.85,15.85,0,0,1,5,.57,5,5,0,0,1,2.5,2.06,6.26,6.26,0,0,1,.94,3.39,5.72,5.72,0,0,1-1.43,4,6.77,6.77,0,0,1-4.24,2,10.21,10.21,0,0,1,2.32,1.81,24.461,24.461,0,0,1,2.47,3.48L252.53,44h-5.19l-3.13-4.67a32.051,32.051,0,0,0-2.29-3.16,3.33,3.33,0,0,0-1.3-.89,7.21,7.21,0,0,0-2.18-.24h-.88v9Zm4.34-12.39h3.21a16.13,16.13,0,0,0,3.89-.27,2.32,2.32,0,0,0,1.22-.9,2.83,2.83,0,0,0,.44-1.61,2.63,2.63,0,0,0-.58-1.76,2.7,2.7,0,0,0-1.63-.84c-.36-.05-1.41-.07-3.17-.07h-3.38Z" transform="translate(-10.64 -4.99)"/>
    <path id="Trazado_6725" data-name="Trazado 6725" d="M259.71,44V26.16h-6.38V22.53H270.4v3.63H264V44Z" transform="translate(-10.64 -4.99)"/>
    <path id="Trazado_6726" data-name="Trazado 6726" d="M273.2,44V22.53h15.92v3.63H277.53v4.76h10.78v3.62H277.53v5.84h12V44Z" transform="translate(-10.64 -4.99)"/>
    <path id="Trazado_6727" data-name="Trazado 6727" d="M292.11,37l4.22-.41a5.13,5.13,0,0,0,1.54,3.12,4.66,4.66,0,0,0,3.14,1,4.84,4.84,0,0,0,3.16-.89,2.62,2.62,0,0,0,1.06-2.07,2,2,0,0,0-.44-1.3,3.72,3.72,0,0,0-1.56-.93q-.76-.26-3.48-.93a11.85,11.85,0,0,1-4.89-2.13,5.63,5.63,0,0,1-1.05-7.39,5.9,5.9,0,0,1,2.69-2.17,10.65,10.65,0,0,1,4.22-.75,9.192,9.192,0,0,1,6.09,1.77A6.23,6.23,0,0,1,309,28.66l-4.33.19a3.73,3.73,0,0,0-1.2-2.38,4.37,4.37,0,0,0-2.74-.72,4.93,4.93,0,0,0-3,.78,1.55,1.55,0,0,0-.69,1.33,1.66,1.66,0,0,0,.64,1.3,11.46,11.46,0,0,0,4,1.44,21.27,21.27,0,0,1,4.68,1.54,6,6,0,0,1,2.37,2.19,6.38,6.38,0,0,1,.86,3.42,6.24,6.24,0,0,1-1,3.45,6.09,6.09,0,0,1-2.9,2.4,12.18,12.18,0,0,1-4.67.78,9.31,9.31,0,0,1-6.25-1.88,8.16,8.16,0,0,1-2.66-5.5Z" transform="translate(-10.64 -4.99)"/>
  </g>
</svg>
